<svg xmlns="http://www.w3.org/2000/svg" viewBox="0 0 512 512" width="512" height="512">
  <defs>
    <linearGradient id="bgGradient" x1="0%" y1="0%" x2="100%" y2="100%">
      <stop offset="0%" style="stop-color:#1890ff;stop-opacity:1" />
      <stop offset="100%" style="stop-color:#096dd9;stop-opacity:1" />
    </linearGradient>
    <linearGradient id="gopherGradient" x1="0%" y1="0%" x2="100%" y2="100%">
      <stop offset="0%" style="stop-color:#8B4513;stop-opacity:1" />
      <stop offset="100%" style="stop-color:#A0522D;stop-opacity:1" />
    </linearGradient>
    <linearGradient id="aiGlow" x1="0%" y1="0%" x2="100%" y2="100%">
      <stop offset="0%" style="stop-color:#52c41a;stop-opacity:0.8" />
      <stop offset="100%" style="stop-color:#73d13d;stop-opacity:0.6" />
    </linearGradient>
  </defs>

  <!-- Background Circle -->
  <circle cx="256" cy="256" r="240" fill="url(#bgGradient)" stroke="none"/>

  <!-- AI Neural Network Background -->
  <g opacity="0.15">
    <circle cx="150" cy="150" r="3" fill="#ffffff"/>
    <circle cx="200" cy="120" r="2" fill="#ffffff"/>
    <circle cx="300" cy="140" r="3" fill="#ffffff"/>
    <circle cx="350" cy="180" r="2" fill="#ffffff"/>
    <circle cx="180" cy="220" r="2" fill="#ffffff"/>
    <circle cx="320" cy="240" r="3" fill="#ffffff"/>
    <circle cx="380" cy="300" r="2" fill="#ffffff"/>
    <circle cx="160" cy="320" r="3" fill="#ffffff"/>
    <circle cx="280" cy="360" r="2" fill="#ffffff"/>
    <circle cx="220" cy="380" r="3" fill="#ffffff"/>

    <line x1="150" y1="150" x2="200" y2="120" stroke="#ffffff" stroke-width="1"/>
    <line x1="200" y1="120" x2="300" y2="140" stroke="#ffffff" stroke-width="1"/>
    <line x1="300" y1="140" x2="350" y2="180" stroke="#ffffff" stroke-width="1"/>
    <line x1="150" y1="150" x2="180" y2="220" stroke="#ffffff" stroke-width="1"/>
    <line x1="300" y1="140" x2="320" y2="240" stroke="#ffffff" stroke-width="1"/>
    <line x1="350" y1="180" x2="380" y2="300" stroke="#ffffff" stroke-width="1"/>
    <line x1="180" y1="220" x2="160" y2="320" stroke="#ffffff" stroke-width="1"/>
    <line x1="320" y1="240" x2="280" y2="360" stroke="#ffffff" stroke-width="1"/>
    <line x1="280" y1="360" x2="220" y2="380" stroke="#ffffff" stroke-width="1"/>
  </g>

  <!-- Gopher Body -->
  <ellipse cx="256" cy="300" rx="85" ry="75" fill="url(#gopherGradient)"/>

  <!-- Gopher Head -->
  <ellipse cx="256" cy="200" rx="70" ry="65" fill="url(#gopherGradient)"/>

  <!-- Gopher Ears -->
  <ellipse cx="215" cy="160" rx="18" ry="25" fill="url(#gopherGradient)" transform="rotate(-20 215 160)"/>
  <ellipse cx="297" cy="160" rx="18" ry="25" fill="url(#gopherGradient)" transform="rotate(20 297 160)"/>

  <!-- Gopher Eyes -->
  <circle cx="235" cy="190" r="8" fill="#ffffff"/>
  <circle cx="277" cy="190" r="8" fill="#ffffff"/>
  <circle cx="237" cy="188" r="5" fill="#000000"/>
  <circle cx="279" cy="188" r="5" fill="#000000"/>
  <circle cx="239" cy="186" r="2" fill="#ffffff"/>
  <circle cx="281" cy="186" r="2" fill="#ffffff"/>

  <!-- Gopher Nose -->
  <ellipse cx="256" cy="210" rx="4" ry="3" fill="#000000"/>

  <!-- Gopher Mouth -->
  <path d="M 246 220 Q 256 230 266 220" stroke="#000000" stroke-width="2" fill="none"/>

  <!-- Laptop/Code Symbol -->
  <rect x="200" y="320" width="112" height="80" rx="8" fill="#2f2f2f" stroke="#ffffff" stroke-width="2"/>
  <rect x="208" y="328" width="96" height="56" fill="#000000"/>

  <!-- Code Lines on Screen -->
  <rect x="215" y="335" width="60" height="3" fill="url(#aiGlow)"/>
  <rect x="215" y="345" width="45" height="3" fill="#52c41a"/>
  <rect x="215" y="355" width="70" height="3" fill="url(#aiGlow)"/>
  <rect x="215" y="365" width="35" height="3" fill="#52c41a"/>
  <rect x="215" y="375" width="55" height="3" fill="url(#aiGlow)"/>

  <!-- Laptop Base -->
  <rect x="190" y="400" width="132" height="12" rx="6" fill="#2f2f2f"/>

  <!-- AI Sparkles -->
  <g fill="url(#aiGlow)" opacity="0.8">
    <polygon points="140,250 144,258 152,258 146,264 148,272 140,268 132,272 134,264 128,258 136,258" />
    <polygon points="370,180 373,186 379,186 375,190 376,196 370,193 364,196 365,190 361,186 367,186" />
    <polygon points="380,350 383,356 389,356 385,360 386,366 380,363 374,366 375,360 371,356 377,356" />
    <polygon points="120,320 122,325 127,325 124,328 125,333 120,331 115,333 116,328 113,325 118,325" />
  </g>

  <!-- Gopher Arms/Paws -->
  <ellipse cx="180" cy="270" rx="25" ry="15" fill="url(#gopherGradient)" transform="rotate(-30 180 270)"/>
  <ellipse cx="332" cy="270" rx="25" ry="15" fill="url(#gopherGradient)" transform="rotate(30 332 270)"/>

  <!-- Highlight on head -->
  <ellipse cx="240" cy="175" rx="15" ry="20" fill="#ffffff" opacity="0.3"/>
</svg>